HIERARCHY
ROOT Hips
{
	OFFSET 0.00000 0.00000 0.00000
	CHANNELS 6 Xposition Yposition Zposition Zrotation Yrotation Xrotation 
	JOINT LHipJoint
	{
		OFFSET 0 0 0
		CHANNELS 3 Zrotation Yrotation Xrotation
		JOINT LeftUpLeg
		{
			OFFSET 1.57358 -1.76629 0.73362
			CHANNELS 3 Zrotation Yrotation Xrotation
			JOINT LeftLeg
			{
				OFFSET 2.40600 -6.61045 0.00000
				CHANNELS 3 Zrotation Yrotation Xrotation
				JOINT LeftFoot
				{
					OFFSET 2.66168 -7.31291 0.00000
					CHANNELS 3 Zrotation Yrotation Xrotation
					JOINT LeftToeBase
					{
						OFFSET 0.20870 -0.57341 2.12506
						CHANNELS 3 Zrotation Yrotation Xrotation
						End Site
						{
							OFFSET 0.00000 -0.00000 1.10557
						}
					}
				}
			}
		}
	}
	JOINT RHipJoint
	{
		OFFSET 0 0 0
		CHANNELS 3 Zrotation Yrotation Xrotation
		JOINT RightUpLeg
		{
			OFFSET -1.49299 -1.76629 0.73362
			CHANNELS 3 Zrotation Yrotation Xrotation
			JOINT RightLeg
			{
				OFFSET -2.43663 -6.69460 0.00000
				CHANNELS 3 Zrotation Yrotation Xrotation
				JOINT RightFoot
				{
					OFFSET -2.62959 -7.22474 0.00000
					CHANNELS 3 Zrotation Yrotation Xrotation
					JOINT RightToeBase
					{
						OFFSET -0.25784 -0.70841 2.21862
						CHANNELS 3 Zrotation Yrotation Xrotation
						End Site
						{
							OFFSET -0.00000 -0.00000 1.16452
						}
					}
				}
			}
		}
	}
	JOINT LowerBack
	{
		OFFSET 0 0 0
		CHANNELS 3 Zrotation Yrotation Xrotation
		JOINT Spine
		{
			OFFSET -0.00034 2.12399 -0.25450
			CHANNELS 3 Zrotation Yrotation Xrotation
			JOINT Spine1
			{
				OFFSET 0.05594 2.14379 -0.03318
				CHANNELS 3 Zrotation Yrotation Xrotation
				JOINT Neck
				{
					OFFSET 0 0 0
					CHANNELS 3 Zrotation Yrotation Xrotation
					JOINT Neck1
					{
						OFFSET -0.09835 1.62725 0.24211
						CHANNELS 3 Zrotation Yrotation Xrotation
						JOINT Head
						{
							OFFSET 0.10849 1.66041 -0.22648
							CHANNELS 3 Zrotation Yrotation Xrotation
							End Site
							{
								OFFSET 0.04385 1.68267 -0.10541
							}
						}
					}
				}
				JOINT LeftShoulder
				{
					OFFSET 0 0 0
					CHANNELS 3 Zrotation Yrotation Xrotation
					JOINT LeftArm
					{
						OFFSET 3.29108 0.79398 -0.68179
						CHANNELS 3 Zrotation Yrotation Xrotation
						JOINT LeftForeArm
						{
							OFFSET 5.15310 -0.00000 -0.00000
							CHANNELS 3 Zrotation Yrotation Xrotation
							JOINT LeftHand
							{
								OFFSET 3.75138 -0.00000 -0.00000
								CHANNELS 3 Zrotation Yrotation Xrotation
								JOINT LeftFingerBase
								{
									OFFSET 0 0 0
									CHANNELS 3 Zrotation Yrotation Xrotation
									JOINT LeftHandIndex1
									{
										OFFSET 0.52917 -0.00000 0.00000
										CHANNELS 3 Zrotation Yrotation Xrotation
										End Site
										{
											OFFSET 0.42663 -0.00000 0.00000
										}
									}
								}
								JOINT LThumb
								{
									OFFSET 0 0 0
									CHANNELS 3 Zrotation Yrotation Xrotation
									End Site
									{
										OFFSET 0.43315 -0.00000 0.43315
									}
								}
							}
						}
					}
				}
				JOINT RightShoulder
				{
					OFFSET 0 0 0
					CHANNELS 3 Zrotation Yrotation Xrotation
					JOINT RightArm
					{
						OFFSET -3.07414 1.06285 -0.44338
						CHANNELS 3 Zrotation Yrotation Xrotation
						JOINT RightForeArm
						{
							OFFSET -5.29613 -0.00000 0.00000
							CHANNELS 3 Zrotation Yrotation Xrotation
							JOINT RightHand
							{
								OFFSET -3.76144 -0.00000 -0.00000
								CHANNELS 3 Zrotation Yrotation Xrotation
								JOINT RightFingerBase
								{
									OFFSET 0 0 0
									CHANNELS 3 Zrotation Yrotation Xrotation
									JOINT RightHandIndex1
									{
										OFFSET -0.74732 -0.00000 0.00000
										CHANNELS 3 Zrotation Yrotation Xrotation
										End Site
										{
											OFFSET -0.60251 -0.00000 0.00000
										}
									}
								}
								JOINT RThumb
								{
									OFFSET 0 0 0
									CHANNELS 3 Zrotation Yrotation Xrotation
									End Site
									{
										OFFSET -0.61171 -0.00000 0.61171
									}
								}
							}
						}
					}
				}
			}
		}
	}
}
MOTION
Frames: 16
Frame Time: 0.08
0.00 0.00 0.00 0 0 0 0 0 0 -21 0 0 0 0 0 0 0 0 0 0 0 0 0 0 21 0 0 0 0 0 0 0 0 0 0 0 0 0 0 0 0 0 0 0 0 0 0 -16 0 0 21 0 0 11 0 0 0 -8 0 0 0 0 0 0 0 0 0 0 0 0 0 0 0 0 0 0 0 0 8 0 0 0 0 0 0 0 0 0 0 0 0 0 0 0 0 0
0.00 0.00 0.00 -1.2942 -2.2716 -1.8643 0.0000 0.0000 0.0000 -14.4526 -2.5308 -13.0983 19.8263 19.9993 89.4922 0.1186 -2.2367 7.7323 0.5035 -4.5488 -12.6259 0.0000 0.0000 0.0000 27.5067 6.6819 -19.4446 -6.5139 -14.9085 47.0110 -0.9112 -6.9677 -21.8518 -0.0478 1.4105 -3.8790 0.7116 0.0806 11.8333 3.9207 0.4316 1.0016 3.6549 0.2406 -5.6186 -9.0443 -3.0582 -16.4618 4.5068 -2.8101 16.2507 2.6549 -1.4587 7.9354 -0.0000 -0.0000 0.0000 -93.5996 12.5432 35.9705 105.3655 -59.0888 -73.2662 -0.0000 0.0000 -23.0194 19.0423 9.6168 3.3000 -7.1250 0.0000 -0.0000 -6.9547 40.0478 0.8538 -0.0000 -0.0000 0.0000 77.4965 -10.4243 43.6447 -131.8878 52.2052 -95.3256 0.0000 -0.0000 -13.0698 -7.7692 19.1039 -2.5567 7.1250 -0.0000 -0.0000 13.2488 -11.0993 10.7493
0.00 0.00 0.00 -4.7192 -2.1370 -0.3360 0.0000 0.0000 0.0000 -8.4877 -3.8964 -37.8211 15.8502 19.5820 77.7852 0.1746 -4.7601 -7.6510 0.1316 -2.3384 -6.4417 0.0000 0.0000 0.0000 32.3498 2.4331 0.5847 -4.5596 -12.8700 38.8838 -0.8177 -9.4127 -22.9629 -0.8486 5.8752 -16.4228 6.2224 2.4518 11.1309 3.6714 4.2826 0.1718 -0.3109 1.9745 -5.9006 -9.8129 -5.0266 -17.8776 6.8011 -5.7363 18.3491 3.1918 -2.6470 9.2075 -0.0000 -0.0000 0.0000 -88.6395 22.3648 41.3589 114.6611 -57.5724 -81.1831 -0.0000 0.0000 -24.9933 19.8368 8.6805 3.1164 -7.1250 0.0000 -0.0000 -6.1284 39.1291 0.8904 -0.0000 -0.0000 0.0000 77.3510 -6.1413 43.9626 -143.4739 45.8716 -104.1010 0.0000 -0.0000 -17.0940 -5.8118 22.1378 -2.1966 7.1250 -0.0000 -0.0000 14.4415 -8.2969 12.6251
0.00 0.00 0.00 -4.3283 -0.9299 0.0556 0.0000 0.0000 0.0000 -9.7014 -7.0565 -38.1332 10.3571 17.6058 60.6753 0.3289 -4.7684 -10.2427 0.3889 -4.0047 -11.0900 0.0000 0.0000 0.0000 31.5736 0.4633 7.1195 -3.6875 -11.7326 34.7924 -0.0764 -9.4722 -14.7378 -1.2562 7.1052 -20.0275 6.6224 2.6423 9.2549 3.2284 4.4177 -0.3142 -0.9257 2.0386 -5.2859 -9.7466 -5.2669 -16.9026 6.2488 -6.0736 18.6203 2.9566 -2.8786 9.1364 -0.0000 -0.0000 0.0000 -88.7591 25.2805 39.8992 114.8487 -57.5333 -81.3414 -0.0000 0.0000 -23.4849 20.0642 7.8206 2.8452 -7.1250 0.0000 -0.0000 -5.8184 38.2392 0.9726 -0.0000 -0.0000 0.0000 78.0316 -8.1432 44.1280 -143.5491 45.8208 -104.1550 0.0000 -0.0000 -13.9913 -4.3684 25.1554 -1.8599 7.1250 -0.0000 -0.0000 15.2953 -5.4957 14.2908
0.00 0.00 0.00 -4.0141 1.1031 0.3503 0.0000 0.0000 0.0000 -9.3998 -12.7654 -34.8951 5.2774 13.6896 42.0078 0.0998 -0.6605 -5.7668 0.2798 -3.4022 -9.4006 0.0000 0.0000 0.0000 31.1218 -0.9435 11.9986 -3.0736 -10.8133 31.6528 0.3498 -10.5490 -2.1011 -0.6877 5.3015 -14.7706 6.3950 2.4101 7.9457 2.9484 3.9803 -0.7323 -0.9815 1.8304 -5.0068 -9.8724 -5.3164 -17.6538 6.4026 -6.1443 20.3073 3.0242 -2.8975 9.8802 0.0000 0.0000 0.0000 -89.2345 26.3883 38.3919 114.5602 -57.5933 -81.0979 -0.0000 0.0000 -22.4538 19.8637 6.6050 2.3796 -7.1250 0.0000 -0.0000 -5.8399 36.9432 1.1623 0.0000 0.0000 0.0000 78.7365 -10.6461 43.8612 -141.9679 46.8598 -103.0110 0.0000 -0.0000 -11.6995 -4.7329 24.8736 -1.9945 7.1250 -0.0000 -0.0000 15.0786 -5.7374 14.0009
0.00 0.00 0.00 -5.3435 -1.6233 -0.7097 0.0000 0.0000 0.0000 -4.4398 -16.0964 -29.3926 3.1692 10.9640 32.1586 0.0155 5.7607 4.4718 0.2307 -3.0912 -8.5327 0.0000 0.0000 0.0000 32.3822 1.2017 10.9350 -6.4037 -14.8085 46.5813 -0.3186 -10.7850 11.7582 -0.0866 1.8984 -5.2249 5.7680 2.8881 7.7763 2.8532 4.5263 -0.5595 -0.7801 2.1265 -4.7344 -9.0674 -5.1040 -17.8556 7.9621 -6.4843 20.9218 3.4049 -2.8114 10.1922 0.0000 0.0000 0.0000 -87.6154 24.1661 38.2961 116.5051 -57.1715 -82.7361 -0.0000 0.0000 -19.8630 21.2062 5.9458 2.3016 -7.1250 0.0000 -0.0000 -4.6417 36.3206 0.9932 0.0000 0.0000 0.0000 80.5697 -15.2416 42.9790 -134.0060 51.2463 -96.9887 0.0000 -0.0000 -9.0688 -5.7609 23.4885 -2.3026 7.1250 -0.0000 -0.0000 14.4626 -6.9912 13.0275
0.00 0.00 0.00 -4.0201 -4.7580 -2.5403 0.0000 0.0000 0.0000 -5.4513 -12.9126 -25.0057 3.9624 12.1102 36.1230 0.0187 -0.3031 -2.4949 0.8811 -5.9839 -16.7379 0.0000 0.0000 0.0000 28.7385 0.6641 4.9730 -10.9080 -17.8898 62.4826 -0.0008 -10.8759 7.6392 -0.0037 -0.3930 1.0798 3.5249 2.6098 9.4219 2.6500 3.9803 0.4260 0.2516 1.9153 -4.7877 -8.9013 -4.1808 -18.8580 7.8885 -5.0912 20.2488 3.5386 -2.1451 9.9950 0.0000 0.0000 0.0000 -87.4678 20.4971 37.6065 117.3765 -56.9694 -83.4676 -0.0000 0.0000 -19.9104 20.5736 6.4474 2.4135 -7.1250 0.0000 -0.0000 -5.2247 36.8184 1.0550 0.0000 0.0000 0.0000 80.2979 -16.1250 43.3715 -127.4408 53.9769 -91.7688 0.0000 -0.0000 -6.8481 -5.9674 23.8580 -2.4210 7.1250 -0.0000 -0.0000 14.3361 -6.6152 13.0135
0.00 0.00 0.00 3.6298 -10.1863 -4.4801 0.0000 0.0000 0.0000 -15.4689 -6.5587 -19.4496 4.9153 13.2878 40.4556 0.4419 0.2160 -12.6389 0.6119 -5.0067 -13.9276 0.0000 0.0000 0.0000 15.1437 0.3382 -6.2038 -16.5132 -19.7060 79.7570 0.1413 -8.3562 2.3437 -0.0451 -1.3702 3.7680 -4.1953 3.3402 9.9826 0.4903 3.9903 0.4669 2.2808 2.0750 -5.4312 -9.1285 -3.3613 -18.2831 7.8692 -3.9795 21.2372 3.7556 -1.6701 10.1358 0.0000 0.0000 0.0000 -85.5886 13.9522 37.4205 111.0239 -58.2622 -78.1010 -0.0000 0.0000 -24.5062 15.3356 5.9987 1.6416 -7.1250 0.0000 -0.0000 -9.5412 36.0577 2.1214 0.0000 0.0000 0.0000 81.4345 -20.0955 42.3149 -121.5285 55.8887 -86.9276 0.0000 -0.0000 -6.5648 -6.9603 21.6185 -2.5753 7.1250 -0.0000 -0.0000 13.7331 -8.7082 11.8504
0.00 0.00 0.00 2.4903 -11.9249 -3.7798 0.0000 0.0000 0.0000 -13.6911 -5.5051 -18.9809 9.0131 16.8162 56.1355 -0.0171 -4.9203 -2.8297 3.3142 -11.1872 -32.9137 0.0000 0.0000 0.0000 16.3372 -3.1607 -29.0768 -17.2607 -19.8191 81.9674 -0.0074 -1.8407 -3.2161 -0.0053 0.4708 -1.2938 -2.6140 1.1050 13.4336 1.0684 1.1392 0.6743 2.3932 0.6534 -6.9045 -9.5078 -1.9218 -20.0674 6.3286 -1.3113 22.1128 3.6720 -0.6415 10.5200 0.0000 -0.0000 0.0000 -85.1221 6.0738 31.2437 108.9636 -58.5966 -76.3455 -0.0000 0.0000 -19.3540 19.5134 6.0847 2.1512 -7.1250 0.0000 -0.0000 -6.0738 36.3746 1.2941 0.0000 -0.0000 0.0000 82.4511 -28.4560 40.8736 -130.8632 52.6414 -94.5136 0.0000 -0.0000 -13.6548 -5.8167 22.1801 -2.2024 7.1250 -0.0000 -0.0000 14.4381 -8.2555 12.6340
0.00 0.00 0.00 -0.5052 -13.8831 -4.7563 0.0000 0.0000 0.0000 -6.5260 -5.4732 -24.3013 10.9438 17.9075 62.5989 0.1524 -0.8411 7.7292 1.3499 -7.3554 -20.7726 0.0000 0.0000 0.0000 19.8236 -2.4504 -31.8243 -12.1099 -18.4367 66.3368 -0.0942 2.6914 -5.4876 -0.5433 4.7225 -13.1187 0.4249 1.0252 16.6713 1.7398 1.5405 2.3465 1.2726 0.7506 -6.8715 -9.5169 -2.3750 -20.7909 7.2636 -2.0935 21.4238 3.8872 -0.8662 10.4852 -0.0000 -0.0000 0.0000 -83.8943 5.0423 29.9288 115.9383 -57.2985 -82.2595 -0.0000 0.0000 -18.4363 19.2406 3.9045 1.3615 -7.1250 0.0000 -0.0000 -6.0714 34.0669 1.6362 -0.0000 -0.0000 0.0000 82.0968 -29.7281 40.8795 -133.6011 51.4357 -96.6725 0.0000 -0.0000 -12.5495 -6.3696 21.1920 -2.3109 7.1250 -0.0000 -0.0000 14.1059 -9.1713 12.0586
0.00 0.00 0.00 0.8251 -15.2808 -3.7862 0.0000 0.0000 0.0000 -2.9439 -11.1679 -22.5838 6.2441 14.6608 45.9538 -0.1488 6.8756 -1.6166 0.6930 -5.3215 -14.8280 0.0000 0.0000 0.0000 16.3692 -0.9226 -36.1944 -7.9682 -16.0958 52.4482 -0.0115 0.3450 -1.9336 -1.2499 7.0882 -19.9771 -1.0189 1.3845 17.5344 1.1309 1.7045 2.0944 1.3886 0.8630 -7.6423 -10.0023 -3.2563 -18.4760 7.4599 -3.4410 20.8751 3.8228 -1.5375 10.0011 -0.0000 0.0000 0.0000 -83.0029 8.4209 29.3936 119.1498 -56.5323 -84.9506 -0.0000 0.0000 -18.2203 18.8678 4.2066 1.4360 -7.1250 0.0000 -0.0000 -6.4062 34.3697 1.6800 -0.0000 0.0000 0.0000 80.5467 -28.6783 41.7606 -130.4707 52.8039 -94.2013 0.0000 -0.0000 -11.8743 -6.3329 20.8684 -2.2640 7.1250 -0.0000 -0.0000 14.1333 -9.4889 11.9905
0.00 0.00 0.00 3.1904 -18.8866 -4.1063 0.0000 0.0000 0.0000 0.5615 -17.0606 -15.9464 2.2594 9.3866 27.0124 -0.1967 8.8818 1.2132 1.6391 -8.0701 -22.9273 0.0000 0.0000 0.0000 11.2936 1.4222 -40.6108 -5.8117 -14.2434 44.2213 -0.0691 0.6645 5.2559 -1.3773 7.4266 -20.9854 -2.7563 2.1235 17.1904 0.0453 2.2659 2.6610 1.0963 1.1548 -6.8831 -10.9440 -4.4968 -16.8067 8.3259 -5.2321 19.5683 4.0173 -2.3687 9.4632 -0.0000 0.0000 0.0000 -82.9354 12.2389 27.8946 116.6598 -57.1362 -82.8661 -0.0000 0.0000 -17.2379 19.8475 5.0013 1.8024 -7.1250 0.0000 -0.0000 -5.6796 35.2491 1.3659 -0.0000 0.0000 0.0000 78.7430 -24.4438 42.6311 -125.1034 54.7891 -89.8685 0.0000 -0.0000 -10.6911 -7.3522 19.8744 -2.5117 7.1250 -0.0000 -0.0000 13.5038 -10.3783 11.1734
0.00 0.00 0.00 10.5981 -26.0480 -12.2492 0.0000 0.0000 0.0000 -4.1031 -6.0724 -10.3422 4.9398 13.3156 40.5618 0.7336 -10.1432 -15.8213 2.4188 -9.6887 -27.9744 0.0000 0.0000 0.0000 9.2152 0.5692 -51.6755 -8.9184 -16.7549 55.8075 -0.0498 5.2451 8.8872 -0.4079 -4.0998 11.3575 -7.0221 2.2449 18.5083 -0.7289 1.4899 4.1191 2.8584 0.7952 -6.0651 -14.1619 -8.1657 -10.8674 9.6168 -10.3653 15.3232 4.3642 -5.0103 7.7634 0.0000 -0.0000 0.0000 -88.5051 12.6018 37.6113 105.5764 -59.0631 -73.4471 -0.0000 0.0000 -16.2556 20.1387 4.6784 1.7132 -7.1250 0.0000 -0.0000 -5.4074 34.9207 1.3433 0.0000 -0.0000 0.0000 78.0123 -13.2599 43.7800 -120.3904 56.2050 -85.9835 0.0000 -0.0000 -16.1321 -11.8633 18.4103 -3.7956 7.1250 -0.0000 -0.0000 10.6066 -11.4391 8.4419
0.00 0.00 0.00 17.7070 -23.5462 -14.3904 0.0000 0.0000 0.0000 -10.3868 -4.8051 12.6605 2.7697 10.3126 29.9950 -0.0927 -7.5073 -2.8282 4.2885 -12.5347 -37.6509 0.0000 0.0000 0.0000 8.7779 3.1270 -46.3034 -13.5853 -18.9834 70.9338 0.2401 11.3163 -3.6497 -0.2485 -3.2075 8.8570 -9.3191 -2.6809 12.4994 -0.9486 -5.0034 -0.0319 5.0890 -2.1766 -6.3488 -15.6734 -11.2082 -8.4522 6.8823 -14.5863 19.5764 3.1401 -7.4507 9.2252 -0.0000 0.0000 0.0000 -90.5978 8.3715 44.8214 99.9645 -59.6215 -68.6185 -0.0000 0.0000 -16.0290 17.3536 3.5015 1.0934 -7.1250 0.0000 -0.0000 -7.5674 33.5770 2.1354 -0.0000 0.0000 0.0000 79.7965 -18.4940 50.1149 -133.8142 51.3364 -96.8390 0.0000 -0.0000 -4.5258 -6.5224 20.9327 -2.3391 7.1250 -0.0000 -0.0000 14.0136 -9.4115 11.9048
0.00 0.00 0.00 21.6014 -27.2883 -15.8146 0.0000 0.0000 0.0000 -14.0000 -5.0270 15.4614 2.4484 9.7435 28.1501 0.4944 -3.6695 15.1329 3.5035 -11.4687 -33.8773 0.0000 0.0000 0.0000 10.4960 2.2412 -42.8242 -13.7335 -19.0312 71.3891 -0.0514 7.7553 -6.4792 -0.7551 -5.5500 15.4841 -9.4746 -2.0109 10.6527 -1.4123 -4.0116 -0.8204 4.4466 -1.6739 -6.3281 -15.9786 -10.9021 -8.5553 6.3492 -14.0065 19.8677 3.0818 -7.2558 9.2613 -0.0000 -0.0000 0.0000 -88.3635 10.3919 40.7388 98.1102 -59.7500 -67.0177 -0.0000 0.0000 -13.3087 18.0126 4.4665 1.4505 -7.1250 0.0000 -0.0000 -7.1350 34.6062 1.8323 -0.0000 -0.0000 0.0000 79.2460 -18.0424 49.5648 -131.7852 52.2496 -95.2445 0.0000 -0.0000 -5.1955 -7.1378 20.6337 -2.5268 7.1250 -0.0000 -0.0000 13.6303 -9.6540 11.4903
0.00 0.00 0.00 48.3063 -27.1110 -26.5440 0.0000 0.0000 0.0000 -45.1564 -16.0464 9.0282 4.9662 13.3456 40.6763 1.4588 -1.9551 23.5987 0.5480 -4.7424 -13.1754 0.0000 0.0000 0.0000 -13.0725 -0.0211 -38.6959 -14.1775 -19.1670 72.7457 0.0471 17.2284 -11.6497 -1.2620 -7.1212 20.0749 -27.2106 -0.1517 6.5996 -5.9995 -3.0072 -1.2977 8.6097 -0.9442 -4.3517 -14.5508 -11.8350 -11.5853 6.1761 -14.8098 17.0939 2.5723 -7.4149 8.8045 0.0000 -0.0000 0.0000 -84.5274 15.0966 28.0304 90.0712 -60.0000 -60.0617 -0.0000 0.0000 -10.0008 20.5791 5.5762 2.0894 -7.1250 0.0000 -0.0000 -5.1294 35.8939 1.1518 0.0000 -0.0000 0.0000 75.8409 -8.9306 46.3612 -125.9101 54.5175 -90.5265 0.0000 -0.0000 -7.5521 -8.4685 19.3084 -2.8184 7.1250 -0.0000 -0.0000 12.7982 -10.8437 10.4325
